{"asset":{"version":"2.0","generator":"Blockbench 4.9.2 glTF exporter"},"scenes":[{"nodes":[20],"name":"blockbench_export"}],"scene":0,"nodes":[{"name":"1fe05607-a680-8a08-ab0f-6e8fba72e5b5"},{"translation":[0.1875,-1.0750000000000002,1.1875],"name":"cube","mesh":0},{"translation":[2.5,-0.38750000000000007,1.4375],"name":"cube","mesh":1},{"translation":[2.5,-0.38750000000000007,1.4375],"name":"cube","mesh":2},{"translation":[2.5,-0.38750000000000007,1.4375],"name":"cube","mesh":3},{"translation":[2.5,-0.38750000000000007,1.4375],"name":"cube","mesh":4},{"translation":[0.140625,0.42577278133510044,0.14068573262047623],"name":"Hat"},{"translation":[0.625,-0.011727218664899564,0.07818573262047623],"name":"bone2"},{"translation":[7.93016446160826e-18,1.0117272186648996,0.17181426737952377],"name":"Head","children":[6,7]},{"rotation":[0.11883326796504952,0.07174061542432379,-0.11984945028963241,0.9830402065981628],"translation":[-0.5528972973483779,0.4019386546207353,0.33843596343973603],"name":"ArmL"},{"rotation":[0.11883326796504952,-0.07174061542432379,0.11984945028963241,0.9830402065981628],"translation":[0.5528972973483779,0.4019386546207353,0.33843596343973603],"name":"ArmR"},{"translation":[1.586032892321652e-17,0,0],"name":"Tail"},{"name":"FootR"},{"translation":[1.586032892321652e-17,0,0],"name":"FootL"},{"translation":[7.93016446160826e-18,0.7360507196048862,0.29450876551169536],"name":"Scarf"},{"translation":[-7.93016446160826e-18,0,0],"name":"Torso","children":[9,10,11,12,13,14]},{"translation":[0.1875,-0.8250000000000001,1.1875],"name":"Body","children":[8,15]},{"translation":[-0.1875,0.7000000000000001,-0.0625],"name":"bone","children":[0,1,2,3,4,5,16]},{"translation":[1.5,-0.328125,-2.6875],"name":"cube","mesh":5},{"translation":[-1.5,0.328125,2.6875],"name":"bone3","children":[18]},{"children":[17,19]}],"bufferViews":[{"buffer":0,"byteOffset":0,"byteLength":288,"target":34962,"byteStride":12},{"buffer":0,"byteOffset":288,"byteLength":288,"target":34962,"byteStride":12},{"buffer":0,"byteOffset":576,"byteLength":192,"target":34962,"byteStride":8},{"buffer":0,"byteOffset":768,"byteLength":72,"target":34963},{"buffer":0,"byteOffset":840,"byteLength":288,"target":34962,"byteStride":12},{"buffer":0,"byteOffset":1128,"byteLength":288,"target":34962,"byteStride":12},{"buffer":0,"byteOffset":1416,"byteLength":192,"target":34962,"byteStride":8},{"buffer":0,"byteOffset":1608,"byteLength":72,"target":34963},{"buffer":0,"byteOffset":1680,"byteLength":288,"target":34962,"byteStride":12},{"buffer":0,"byteOffset":1968,"byteLength":288,"target":34962,"byteStride":12},{"buffer":0,"byteOffset":2256,"byteLength":192,"target":34962,"byteStride":8},{"buffer":0,"byteOffset":2448,"byteLength":72,"target":34963},{"buffer":0,"byteOffset":2520,"byteLength":288,"target":34962,"byteStride":12},{"buffer":0,"byteOffset":2808,"byteLength":288,"target":34962,"byteStride":12},{"buffer":0,"byteOffset":3096,"byteLength":192,"target":34962,"byteStride":8},{"buffer":0,"byteOffset":3288,"byteLength":72,"target":34963},{"buffer":0,"byteOffset":3360,"byteLength":288,"target":34962,"byteStride":12},{"buffer":0,"byteOffset":3648,"byteLength":288,"target":34962,"byteStride":12},{"buffer":0,"byteOffset":3936,"byteLength":192,"target":34962,"byteStride":8},{"buffer":0,"byteOffset":4128,"byteLength":72,"target":34963},{"buffer":0,"byteOffset":4200,"byteLength":288,"target":34962,"byteStride":12},{"buffer":0,"byteOffset":4488,"byteLength":288,"target":34962,"byteStride":12},{"buffer":0,"byteOffset":4776,"byteLength":192,"target":34962,"byteStride":8},{"buffer":0,"byteOffset":4968,"byteLength":72,"target":34963}],"buffers":[{"byteLength":5040,"uri":"data:application/octet-stream;base64,"}],"accessors":[{"bufferView":0,"componentType":5126,"count":24,"max":[2.875,1.8125,0.6875],"min":[-3.25,1.4375,-3.0625],"type":"VEC3"},{"bufferView":1,"componentType":5126,"count":24,"max":[1,1,1],"min":[-1,-1,-1],"type":"VEC3"},{"bufferView":2,"componentType":5126,"count":24,"max":[0.765625,0.46875],"min":[0,0],"type":"VEC2"},{"bufferView":3,"componentType":5123,"count":36,"max":[23],"min":[0],"type":"SCALAR"},{"bufferView":4,"componentType":5126,"count":24,"max":[0.1875,0.8125,0.1875],"min":[-0.1875,-0.3125,-0.1875],"type":"VEC3"},{"bufferView":5,"componentType":5126,"count":24,"max":[1,1,1],"min":[-1,-1,-1],"type":"VEC3"},{"bufferView":6,"componentType":5126,"count":24,"max":[0.453125,0.46875],"min":[0.3828125,0.09375],"type":"VEC2"},{"bufferView":7,"componentType":5123,"count":36,"max":[23],"min":[0],"type":"SCALAR"},{"bufferView":8,"componentType":5126,"count":24,"max":[0.1875,0.8125,-2.6875],"min":[-0.1875,-0.3125,-3.0625],"type":"VEC3"},{"bufferView":9,"componentType":5126,"count":24,"max":[1,1,1],"min":[-1,-1,-1],"type":"VEC3"},{"bufferView":10,"componentType":5126,"count":24,"max":[0.4765625,0.4453125],"min":[0.3828125,0.09375],"type":"VEC2"},{"bufferView":11,"componentType":5123,"count":36,"max":[23],"min":[0],"type":"SCALAR"},{"bufferView":12,"componentType":5126,"count":24,"max":[-4.8125,0.8125,-2.6875],"min":[-5.1875,-0.3125,-3.0625],"type":"VEC3"},{"bufferView":13,"componentType":5126,"count":24,"max":[1,1,1],"min":[-1,-1,-1],"type":"VEC3"},{"bufferView":14,"componentType":5126,"count":24,"max":[0.4765625,0.515625],"min":[0.3828125,0.1875],"type":"VEC2"},{"bufferView":15,"componentType":5123,"count":36,"max":[23],"min":[0],"type":"SCALAR"},{"bufferView":16,"componentType":5126,"count":24,"max":[-4.8125,0.8125,0.1875],"min":[-5.1875,-0.3125,-0.1875],"type":"VEC3"},{"bufferView":17,"componentType":5126,"count":24,"max":[1,1,1],"min":[-1,-1,-1],"type":"VEC3"},{"bufferView":18,"componentType":5126,"count":24,"max":[0.4765625,0.4453125],"min":[0.40625,0.09375],"type":"VEC2"},{"bufferView":19,"componentType":5123,"count":36,"max":[23],"min":[0],"type":"SCALAR"},{"bufferView":20,"componentType":5126,"count":24,"max":[-0.6875,0.25,3.0625],"min":[-2.3125,0,1.4375],"type":"VEC3"},{"bufferView":21,"componentType":5126,"count":24,"max":[1,1,1],"min":[-1,-1,-1],"type":"VEC3"},{"bufferView":22,"componentType":5126,"count":24,"max":[0.8125,0.8125],"min":[0,0],"type":"VEC2"},{"bufferView":23,"componentType":5123,"count":36,"max":[23],"min":[0],"type":"SCALAR"}],"materials":[{"pbrMetallicRoughness":{"metallicFactor":0,"roughnessFactor":1,"baseColorTexture":{"index":0}},"alphaMode":"MASK","alphaCutoff":0.05,"doubleSided":true},{"pbrMetallicRoughness":{"metallicFactor":0,"roughnessFactor":1,"baseColorTexture":{"index":1}},"alphaMode":"MASK","alphaCutoff":0.05,"doubleSided":true}],"textures":[{"sampler":0,"source":0},{"sampler":1,"source":1}],"samplers":[{"magFilter":9728,"minFilter":9728,"wrapS":33071,"wrapT":33071},{"magFilter":9728,"minFilter":9728,"wrapS":33071,"wrapT":33071}],"images":[{"mimeType":"image/png","uri":"data:image/png;base64,"},{"mimeType":"image/png","uri":"data:image/png;base64,"}],"meshes":[{"primitives":[{"mode":4,"attributes":{"POSITION":0,"NORMAL":1,"TEXCOORD_0":2},"indices":3,"material":0}]},{"primitives":[{"mode":4,"attributes":{"POSITION":4,"NORMAL":5,"TEXCOORD_0":6},"indices":7,"material":0}]},{"primitives":[{"mode":4,"attributes":{"POSITION":8,"NORMAL":9,"TEXCOORD_0":10},"indices":11,"material":0}]},{"primitives":[{"mode":4,"attributes":{"POSITION":12,"NORMAL":13,"TEXCOORD_0":14},"indices":15,"material":0}]},{"primitives":[{"mode":4,"attributes":{"POSITION":16,"NORMAL":17,"TEXCOORD_0":18},"indices":19,"material":0}]},{"primitives":[{"mode":4,"attributes":{"POSITION":20,"NORMAL":21,"TEXCOORD_0":22},"indices":23,"material":1}]}]}