{"asset":{"version":"2.0","generator":"Blockbench 4.9.2 glTF exporter"},"scenes":[{"nodes":[41],"name":"blockbench_export"}],"scene":0,"nodes":[{"translation":[0.140625,0.42577278133510044,0.14068573262047626],"name":"25fd4635-a648-4667-b31b-c1f65ddbba76"},{"translation":[0.625,-0.011727218664899564,0.07818573262047626],"name":"17b253ae-e213-ba58-d682-3a95ac3e3db6"},{"translation":[7.93016446160826e-18,1.0117272186648996,0.17181426737952374],"name":"6ffe1816-a284-e1ee-be25-1b4ccf22f399","children":[0,1]},{"rotation":[0.11883326796504952,0.07174061542432379,-0.11984945028963241,0.9830402065981628],"translation":[-0.5528972973483779,0.4019386546207353,0.33843596343973603],"name":"884669fb-a8d3-d431-4f8c-67f99fc970c7"},{"rotation":[0.11883326796504952,-0.07174061542432379,0.11984945028963241,0.9830402065981628],"translation":[0.5528972973483779,0.4019386546207353,0.33843596343973603],"name":"8e0afd43-b4b5-86c0-0a3c-577c5be80dd9"},{"translation":[1.586032892321652e-17,0,0],"name":"d8989f6b-8579-68ea-d0a7-3f356ab42660"},{"name":"9e37f2b2-2d57-198f-6cd8-2d870333ad63"},{"translation":[1.586032892321652e-17,0,0],"name":"9d39ce76-3192-c4b7-f6c4-62a36a3a0137"},{"translation":[7.93016446160826e-18,0.7360507196048862,0.2945087655116954],"name":"6f0f1946-01a4-a66f-b63c-d52fef974c35"},{"translation":[-7.93016446160826e-18,0,0],"name":"a081673f-2779-751e-e38d-45f1be1639b2","children":[3,4,5,6,7,8]},{"translation":[0,0.375,0],"name":"15427e57-4691-ee5e-72f0-b2d806d10205","children":[2,9]},{"translation":[0,0,-0.5125000000000001],"name":"cube","mesh":0},{"translation":[0,0,-0.16875000000000007],"name":"cube","mesh":1},{"name":"cube","mesh":2},{"rotation":[0.06540312923014306,0,0,0.9978589232386035],"translation":[0,0.22606103512287712,-0.2722619755061638],"name":"fin","mesh":3},{"rotation":[0,0,0.10886687485196457,0.9940563382223196],"translation":[0.10625000000000001,-0.10625000000000007,-0.775],"name":"cube","mesh":4},{"rotation":[0,0,-0.10886687485196457,0.9940563382223196],"translation":[-0.10625000000000001,-0.10625000000000007,-0.775],"name":"cube","mesh":5},{"translation":[0,0.6875,0.5125000000000001],"name":"Mainbody","children":[11,12,13,14,15,16]},{"name":"cube","mesh":6},{"name":"cube","mesh":7},{"name":"cube","mesh":8},{"translation":[0,0.9781250000000001,-0.25],"name":"Hat2","children":[18,19,20]},{"rotation":[0.3214394653031616,0,0,0.9469301294951057],"translation":[0,-0.071492627038514,-0.03516334069925575],"name":"cube","mesh":9},{"rotation":[0.3214394653031616,0,0,0.9469301294951057],"translation":[0,-0.071492627038514,-0.03516334069925575],"name":"cube","mesh":10},{"rotation":[0.3214394653031616,0,0,0.9469301294951057],"translation":[0,-0.071492627038514,-0.03516334069925575],"name":"cube","mesh":11},{"rotation":[0.3214394653031616,0,0,0.9469301294951057],"translation":[0,-0.071492627038514,-0.03516334069925575],"name":"cube","mesh":12},{"rotation":[0,0,1,6.123233995736766e-17],"translation":[0,-0.3125,0],"name":"bone2","children":[24,25]},{"translation":[-2.0816681711721685e-17,0.821492627038514,0.6726633406992558],"name":"Tail5","children":[22,23,26]},{"translation":[0,-0.125,0],"name":"bone3","children":[10,17,21,27]},{"translation":[0,0.03125,0.046875],"name":"cube","mesh":13},{"translation":[0,-0.1875,0],"name":"cube","mesh":14},{"translation":[0.09375,0.3125,-0.015625],"name":"RightLeg","children":[29,30]},{"translation":[0,0.03125,0.046875],"name":"cube","mesh":15},{"translation":[0,-0.1875,0],"name":"cube","mesh":16},{"translation":[-0.09375,0.3125,-0.015625],"name":"LeftLeg","children":[32,33]},{"translation":[0,-0.1875,0],"name":"cube","mesh":17},{"name":"cube","mesh":18},{"translation":[0.28125,0.46875,0.03125],"name":"rightArm","children":[35,36]},{"translation":[0,-0.1875,0],"name":"cube","mesh":19},{"name":"cube","mesh":20},{"translation":[-0.28125,0.46875,0.03125],"name":"LeftArm","children":[38,39]},{"children":[28,31,34,37,40]}],"bufferViews":[{"buffer":0,"byteOffset":0,"byteLength":288,"target":34962,"byteStride":12},{"buffer":0,"byteOffset":288,"byteLength":288,"target":34962,"byteStride":12},{"buffer":0,"byteOffset":576,"byteLength":192,"target":34962,"byteStride":8},{"buffer":0,"byteOffset":768,"byteLength":72,"target":34963},{"buffer":0,"byteOffset":840,"byteLength":288,"target":34962,"byteStride":12},{"buffer":0,"byteOffset":1128,"byteLength":288,"target":34962,"byteStride":12},{"buffer":0,"byteOffset":1416,"byteLength":192,"target":34962,"byteStride":8},{"buffer":0,"byteOffset":1608,"byteLength":72,"target":34963},{"buffer":0,"byteOffset":1680,"byteLength":288,"target":34962,"byteStride":12},{"buffer":0,"byteOffset":1968,"byteLength":288,"target":34962,"byteStride":12},{"buffer":0,"byteOffset":2256,"byteLength":192,"target":34962,"byteStride":8},{"buffer":0,"byteOffset":2448,"byteLength":72,"target":34963},{"buffer":0,"byteOffset":2520,"byteLength":288,"target":34962,"byteStride":12},{"buffer":0,"byteOffset":2808,"byteLength":288,"target":34962,"byteStride":12},{"buffer":0,"byteOffset":3096,"byteLength":192,"target":34962,"byteStride":8},{"buffer":0,"byteOffset":3288,"byteLength":72,"target":34963},{"buffer":0,"byteOffset":3360,"byteLength":288,"target":34962,"byteStride":12},{"buffer":0,"byteOffset":3648,"byteLength":288,"target":34962,"byteStride":12},{"buffer":0,"byteOffset":3936,"byteLength":192,"target":34962,"byteStride":8},{"buffer":0,"byteOffset":4128,"byteLength":72,"target":34963},{"buffer":0,"byteOffset":4200,"byteLength":288,"target":34962,"byteStride":12},{"buffer":0,"byteOffset":4488,"byteLength":288,"target":34962,"byteStride":12},{"buffer":0,"byteOffset":4776,"byteLength":192,"target":34962,"byteStride":8},{"buffer":0,"byteOffset":4968,"byteLength":72,"target":34963},{"buffer":0,"byteOffset":5040,"byteLength":288,"target":34962,"byteStride":12},{"buffer":0,"byteOffset":5328,"byteLength":288,"target":34962,"byteStride":12},{"buffer":0,"byteOffset":5616,"byteLength":192,"target":34962,"byteStride":8},{"buffer":0,"byteOffset":5808,"byteLength":72,"target":34963},{"buffer":0,"byteOffset":5880,"byteLength":288,"target":34962,"byteStride":12},{"buffer":0,"byteOffset":6168,"byteLength":288,"target":34962,"byteStride":12},{"buffer":0,"byteOffset":6456,"byteLength":192,"target":34962,"byteStride":8},{"buffer":0,"byteOffset":6648,"byteLength":72,"target":34963},{"buffer":0,"byteOffset":6720,"byteLength":288,"target":34962,"byteStride":12},{"buffer":0,"byteOffset":7008,"byteLength":288,"target":34962,"byteStride":12},{"buffer":0,"byteOffset":7296,"byteLength":192,"target":34962,"byteStride":8},{"buffer":0,"byteOffset":7488,"byteLength":72,"target":34963},{"buffer":0,"byteOffset":7560,"byteLength":288,"target":34962,"byteStride":12},{"buffer":0,"byteOffset":7848,"byteLength":288,"target":34962,"byteStride":12},{"buffer":0,"byteOffset":8136,"byteLength":192,"target":34962,"byteStride":8},{"buffer":0,"byteOffset":8328,"byteLength":72,"target":34963},{"buffer":0,"byteOffset":8400,"byteLength":288,"target":34962,"byteStride":12},{"buffer":0,"byteOffset":8688,"byteLength":288,"target":34962,"byteStride":12},{"buffer":0,"byteOffset":8976,"byteLength":192,"target":34962,"byteStride":8},{"buffer":0,"byteOffset":9168,"byteLength":72,"target":34963},{"buffer":0,"byteOffset":9240,"byteLength":288,"target":34962,"byteStride":12},{"buffer":0,"byteOffset":9528,"byteLength":288,"target":34962,"byteStride":12},{"buffer":0,"byteOffset":9816,"byteLength":192,"target":34962,"byteStride":8},{"buffer":0,"byteOffset":10008,"byteLength":72,"target":34963},{"buffer":0,"byteOffset":10080,"byteLength":288,"target":34962,"byteStride":12},{"buffer":0,"byteOffset":10368,"byteLength":288,"target":34962,"byteStride":12},{"buffer":0,"byteOffset":10656,"byteLength":192,"target":34962,"byteStride":8},{"buffer":0,"byteOffset":10848,"byteLength":72,"target":34963},{"buffer":0,"byteOffset":10920,"byteLength":288,"target":34962,"byteStride":12},{"buffer":0,"byteOffset":11208,"byteLength":288,"target":34962,"byteStride":12},{"buffer":0,"byteOffset":11496,"byteLength":192,"target":34962,"byteStride":8},{"buffer":0,"byteOffset":11688,"byteLength":72,"target":34963},{"buffer":0,"byteOffset":11760,"byteLength":288,"target":34962,"byteStride":12},{"buffer":0,"byteOffset":12048,"byteLength":288,"target":34962,"byteStride":12},{"buffer":0,"byteOffset":12336,"byteLength":192,"target":34962,"byteStride":8},{"buffer":0,"byteOffset":12528,"byteLength":72,"target":34963},{"buffer":0,"byteOffset":12600,"byteLength":288,"target":34962,"byteStride":12},{"buffer":0,"byteOffset":12888,"byteLength":288,"target":34962,"byteStride":12},{"buffer":0,"byteOffset":13176,"byteLength":192,"target":34962,"byteStride":8},{"buffer":0,"byteOffset":13368,"byteLength":72,"target":34963},{"buffer":0,"byteOffset":13440,"byteLength":288,"target":34962,"byteStride":12},{"buffer":0,"byteOffset":13728,"byteLength":288,"target":34962,"byteStride":12},{"buffer":0,"byteOffset":14016,"byteLength":192,"target":34962,"byteStride":8},{"buffer":0,"byteOffset":14208,"byteLength":72,"target":34963},{"buffer":0,"byteOffset":14280,"byteLength":288,"target":34962,"byteStride":12},{"buffer":0,"byteOffset":14568,"byteLength":288,"target":34962,"byteStride":12},{"buffer":0,"byteOffset":14856,"byteLength":192,"target":34962,"byteStride":8},{"buffer":0,"byteOffset":15048,"byteLength":72,"target":34963},{"buffer":0,"byteOffset":15120,"byteLength":288,"target":34962,"byteStride":12},{"buffer":0,"byteOffset":15408,"byteLength":288,"target":34962,"byteStride":12},{"buffer":0,"byteOffset":15696,"byteLength":192,"target":34962,"byteStride":8},{"buffer":0,"byteOffset":15888,"byteLength":72,"target":34963},{"buffer":0,"byteOffset":15960,"byteLength":288,"target":34962,"byteStride":12},{"buffer":0,"byteOffset":16248,"byteLength":288,"target":34962,"byteStride":12},{"buffer":0,"byteOffset":16536,"byteLength":192,"target":34962,"byteStride":8},{"buffer":0,"byteOffset":16728,"byteLength":72,"target":34963},{"buffer":0,"byteOffset":16800,"byteLength":288,"target":34962,"byteStride":12},{"buffer":0,"byteOffset":17088,"byteLength":288,"target":34962,"byteStride":12},{"buffer":0,"byteOffset":17376,"byteLength":192,"target":34962,"byteStride":8},{"buffer":0,"byteOffset":17568,"byteLength":72,"target":34963}],"buffers":[{"byteLength":17640,"uri":"data:application/octet-stream;base64,"}],"accessors":[{"bufferView":0,"componentType":5126,"count":24,"max":[0.25,0.25,0.25],"min":[-0.25,-0.25,-0.25],"type":"VEC3"},{"bufferView":1,"componentType":5126,"count":24,"max":[1,1,1],"min":[-1,-1,-1],"type":"VEC3"},{"bufferView":2,"componentType":5126,"count":24,"max":[0.75,0.75],"min":[0,0],"type":"VEC2"},{"bufferView":3,"componentType":5123,"count":36,"max":[23],"min":[0],"type":"SCALAR"},{"bufferView":4,"componentType":5126,"count":24,"max":[0.1875,0.1875,0.09375],"min":[-0.1875,-0.1875,-0.09375],"type":"VEC3"},{"bufferView":5,"componentType":5126,"count":24,"max":[1,1,1],"min":[-1,-1,-1],"type":"VEC3"},{"bufferView":6,"componentType":5126,"count":24,"max":[0.8125,0.71875],"min":[0.25,0.25],"type":"VEC2"},{"bufferView":7,"componentType":5123,"count":36,"max":[23],"min":[0],"type":"SCALAR"},{"bufferView":8,"componentType":5126,"count":24,"max":[0.10000000149011612,0.10000000149011612,0.06875000149011612],"min":[-0.10000000149011612,-0.10000000149011612,-0.06875000149011612],"type":"VEC3"},{"bufferView":9,"componentType":5126,"count":24,"max":[1,1,1],"min":[-1,-1,-1],"type":"VEC3"},{"bufferView":10,"componentType":5126,"count":24,"max":[0.78125,0.78125],"min":[0.25,0.25],"type":"VEC2"},{"bufferView":11,"componentType":5123,"count":36,"max":[23],"min":[0],"type":"SCALAR"},{"bufferView":12,"componentType":5126,"count":24,"max":[0.0000625000029685907,0.0625,0.1875],"min":[0,-0.0625,-0.1875],"type":"VEC3"},{"bufferView":13,"componentType":5126,"count":24,"max":[1,1,1],"min":[-1,-1,-1],"type":"VEC3"},{"bufferView":14,"componentType":5126,"count":24,"max":[0.375,0.375],"min":[0,0],"type":"VEC2"},{"bufferView":15,"componentType":5123,"count":36,"max":[23],"min":[0],"type":"SCALAR"},{"bufferView":16,"componentType":5126,"count":24,"max":[0.012500000186264515,-0.01875000074505806,0.012500000186264515],"min":[-0.012500000186264515,-0.10625000298023224,-0.012500000186264515],"type":"VEC3"},{"bufferView":17,"componentType":5126,"count":24,"max":[1,1,1],"min":[-1,-1,-1],"type":"VEC3"},{"bufferView":18,"componentType":5126,"count":24,"max":[0.3125,0.4375],"min":[0,0],"type":"VEC2"},{"bufferView":19,"componentType":5123,"count":36,"max":[23],"min":[0],"type":"SCALAR"},{"bufferView":20,"componentType":5126,"count":24,"max":[0.012500000186264515,-0.01875000074505806,0.012500000186264515],"min":[-0.012500000186264515,-0.10625000298023224,-0.012500000186264515],"type":"VEC3"},{"bufferView":21,"componentType":5126,"count":24,"max":[1,1,1],"min":[-1,-1,-1],"type":"VEC3"},{"bufferView":22,"componentType":5126,"count":24,"max":[0.3125,0.4375],"min":[0,0],"type":"VEC2"},{"bufferView":23,"componentType":5123,"count":36,"max":[23],"min":[0],"type":"SCALAR"},{"bufferView":24,"componentType":5126,"count":24,"max":[0.1875,0.02187499962747097,0.3125],"min":[-0.1875,-0.04062499850988388,-0.0625],"type":"VEC3"},{"bufferView":25,"componentType":5126,"count":24,"max":[1,1,1],"min":[-1,-1,-1],"type":"VEC3"},{"bufferView":26,"componentType":5126,"count":24,"max":[0.75,0.75],"min":[0,0],"type":"VEC2"},{"bufferView":27,"componentType":5123,"count":36,"max":[23],"min":[0],"type":"SCALAR"},{"bufferView":28,"componentType":5126,"count":24,"max":[0.125,-0.00937500037252903,-0.0625],"min":[-0.125,-0.04062499850988388,-0.1875],"type":"VEC3"},{"bufferView":29,"componentType":5126,"count":24,"max":[1,1,1],"min":[-1,-1,-1],"type":"VEC3"},{"bufferView":30,"componentType":5126,"count":24,"max":[0.75,0.625],"min":[0.375,0],"type":"VEC2"},{"bufferView":31,"componentType":5123,"count":36,"max":[23],"min":[0],"type":"SCALAR"},{"bufferView":32,"componentType":5126,"count":24,"max":[0.01875000074505806,0.03437500074505806,0.14374999701976776],"min":[-0.01875000074505806,0.015625,0.10625000298023224],"type":"VEC3"},{"bufferView":33,"componentType":5126,"count":24,"max":[1,1,1],"min":[-1,-1,-1],"type":"VEC3"},{"bufferView":34,"componentType":5126,"count":24,"max":[0.6875,0.6875],"min":[0.375,0.125],"type":"VEC2"},{"bufferView":35,"componentType":5123,"count":36,"max":[23],"min":[0],"type":"SCALAR"},{"bufferView":36,"componentType":5126,"count":24,"max":[0.0000625000029685907,0.10000000149011612,0.06875000149011612],"min":[0,-0.10000000149011612,-0.06875000149011612],"type":"VEC3"},{"bufferView":37,"componentType":5126,"count":24,"max":[1,1,1],"min":[-1,-1,-1],"type":"VEC3"},{"bufferView":38,"componentType":5126,"count":24,"max":[0.25,0.1875],"min":[0,0],"type":"VEC2"},{"bufferView":39,"componentType":5123,"count":36,"max":[23],"min":[0],"type":"SCALAR"},{"bufferView":40,"componentType":5126,"count":24,"max":[0.0000625000029685907,0.22499999403953552,0.0062500000931322575],"min":[0,0.08749999850988388,-0.06875000149011612],"type":"VEC3"},{"bufferView":41,"componentType":5126,"count":24,"max":[1,1,1],"min":[-1,-1,-1],"type":"VEC3"},{"bufferView":42,"componentType":5126,"count":24,"max":[0.125,0.3125],"min":[0,0],"type":"VEC2"},{"bufferView":43,"componentType":5123,"count":36,"max":[23],"min":[0],"type":"SCALAR"},{"bufferView":44,"componentType":5126,"count":24,"max":[0.0000625000029685907,0.10000000149011612,0.06875000149011612],"min":[0,-0.10000000149011612,-0.06875000149011612],"type":"VEC3"},{"bufferView":45,"componentType":5126,"count":24,"max":[1,1,1],"min":[-1,-1,-1],"type":"VEC3"},{"bufferView":46,"componentType":5126,"count":24,"max":[0.25,0.1875],"min":[0,0],"type":"VEC2"},{"bufferView":47,"componentType":5123,"count":36,"max":[23],"min":[0],"type":"SCALAR"},{"bufferView":48,"componentType":5126,"count":24,"max":[0.0000625000029685907,0.22499999403953552,0.0062500000931322575],"min":[0,0.08749999850988388,-0.06875000149011612],"type":"VEC3"},{"bufferView":49,"componentType":5126,"count":24,"max":[1,1,1],"min":[-1,-1,-1],"type":"VEC3"},{"bufferView":50,"componentType":5126,"count":24,"max":[0.125,0.3125],"min":[0,0],"type":"VEC2"},{"bufferView":51,"componentType":5123,"count":36,"max":[23],"min":[0],"type":"SCALAR"},{"bufferView":52,"componentType":5126,"count":24,"max":[0.03125,0.09375,0.03125],"min":[-0.03125,-0.34375,-0.03125],"type":"VEC3"},{"bufferView":53,"componentType":5126,"count":24,"max":[1,1,1],"min":[-1,-1,-1],"type":"VEC3"},{"bufferView":54,"componentType":5126,"count":24,"max":[0.375,0.4375],"min":[0,0],"type":"VEC2"},{"bufferView":55,"componentType":5123,"count":36,"max":[23],"min":[0],"type":"SCALAR"},{"bufferView":56,"componentType":5126,"count":24,"max":[0.03125,-0.0625,0.015625],"min":[-0.03125,-0.125,-0.109375],"type":"VEC3"},{"bufferView":57,"componentType":5126,"count":24,"max":[1,1,1],"min":[-1,-1,-1],"type":"VEC3"},{"bufferView":58,"componentType":5126,"count":24,"max":[0.375,0.375],"min":[0.25,0],"type":"VEC2"},{"bufferView":59,"componentType":5123,"count":36,"max":[23],"min":[0],"type":"SCALAR"},{"bufferView":60,"componentType":5126,"count":24,"max":[0.03125,0.09375,0.03125],"min":[-0.03125,-0.34375,-0.03125],"type":"VEC3"},{"bufferView":61,"componentType":5126,"count":24,"max":[1,1,1],"min":[-1,-1,-1],"type":"VEC3"},{"bufferView":62,"componentType":5126,"count":24,"max":[0.375,0.4375],"min":[0,0],"type":"VEC2"},{"bufferView":63,"componentType":5123,"count":36,"max":[23],"min":[0],"type":"SCALAR"},{"bufferView":64,"componentType":5126,"count":24,"max":[0.03125,-0.0625,0.015625],"min":[-0.03125,-0.125,-0.109375],"type":"VEC3"},{"bufferView":65,"componentType":5126,"count":24,"max":[1,1,1],"min":[-1,-1,-1],"type":"VEC3"},{"bufferView":66,"componentType":5126,"count":24,"max":[0.375,0.375],"min":[0.25,0],"type":"VEC2"},{"bufferView":67,"componentType":5123,"count":36,"max":[23],"min":[0],"type":"SCALAR"},{"bufferView":68,"componentType":5126,"count":24,"max":[0.03125,0.03125,0.03125],"min":[-0.03125,-0.15625,-0.03125],"type":"VEC3"},{"bufferView":69,"componentType":5126,"count":24,"max":[1,1,1],"min":[-1,-1,-1],"type":"VEC3"},{"bufferView":70,"componentType":5126,"count":24,"max":[0.3125,0.375],"min":[0.0625,0],"type":"VEC2"},{"bufferView":71,"componentType":5123,"count":36,"max":[23],"min":[0],"type":"SCALAR"},{"bufferView":72,"componentType":5126,"count":24,"max":[0.03125,0.03125,0.03125],"min":[-0.03125,-0.15625,-0.03125],"type":"VEC3"},{"bufferView":73,"componentType":5126,"count":24,"max":[1,1,1],"min":[-1,-1,-1],"type":"VEC3"},{"bufferView":74,"componentType":5126,"count":24,"max":[0.3125,0.375],"min":[0,0],"type":"VEC2"},{"bufferView":75,"componentType":5123,"count":36,"max":[23],"min":[0],"type":"SCALAR"},{"bufferView":76,"componentType":5126,"count":24,"max":[0.03125,0.03125,0.03125],"min":[-0.03125,-0.15625,-0.03125],"type":"VEC3"},{"bufferView":77,"componentType":5126,"count":24,"max":[1,1,1],"min":[-1,-1,-1],"type":"VEC3"},{"bufferView":78,"componentType":5126,"count":24,"max":[0.3125,0.375],"min":[0.0625,0],"type":"VEC2"},{"bufferView":79,"componentType":5123,"count":36,"max":[23],"min":[0],"type":"SCALAR"},{"bufferView":80,"componentType":5126,"count":24,"max":[0.03125,0.03125,0.03125],"min":[-0.03125,-0.15625,-0.03125],"type":"VEC3"},{"bufferView":81,"componentType":5126,"count":24,"max":[1,1,1],"min":[-1,-1,-1],"type":"VEC3"},{"bufferView":82,"componentType":5126,"count":24,"max":[0.3125,0.375],"min":[0,0],"type":"VEC2"},{"bufferView":83,"componentType":5123,"count":36,"max":[23],"min":[0],"type":"SCALAR"}],"materials":[{"pbrMetallicRoughness":{"metallicFactor":0,"roughnessFactor":1,"baseColorTexture":{"index":0}},"alphaMode":"MASK","alphaCutoff":0.05,"doubleSided":true},{"pbrMetallicRoughness":{"metallicFactor":0,"roughnessFactor":1,"baseColorTexture":{"index":1}},"alphaMode":"MASK","alphaCutoff":0.05,"doubleSided":true},{"pbrMetallicRoughness":{"metallicFactor":0,"roughnessFactor":1,"baseColorTexture":{"index":2}},"alphaMode":"MASK","alphaCutoff":0.05,"doubleSided":true},{"pbrMetallicRoughness":{"metallicFactor":0,"roughnessFactor":1,"baseColorTexture":{"index":3}},"alphaMode":"MASK","alphaCutoff":0.05,"doubleSided":true},{"pbrMetallicRoughness":{"metallicFactor":0,"roughnessFactor":1,"baseColorTexture":{"index":4}},"alphaMode":"MASK","alphaCutoff":0.05,"doubleSided":true},{"pbrMetallicRoughness":{"metallicFactor":0,"roughnessFactor":1,"baseColorTexture":{"index":5}},"alphaMode":"MASK","alphaCutoff":0.05,"doubleSided":true},{"pbrMetallicRoughness":{"metallicFactor":0,"roughnessFactor":1,"baseColorTexture":{"index":6}},"alphaMode":"MASK","alphaCutoff":0.05,"doubleSided":true}],"textures":[{"sampler":0,"source":0},{"sampler":1,"source":1},{"sampler":2,"source":2},{"sampler":3,"source":3},{"sampler":4,"source":4},{"sampler":5,"source":5},{"sampler":6,"source":6}],"samplers":[{"magFilter":9728,"minFilter":9728,"wrapS":33071,"wrapT":33071},{"magFilter":9728,"minFilter":9728,"wrapS":33071,"wrapT":33071},{"magFilter":9728,"minFilter":9728,"wrapS":33071,"wrapT":33071},{"magFilter":9728,"minFilter":9728,"wrapS":33071,"wrapT":33071},{"magFilter":9728,"minFilter":9728,"wrapS":33071,"wrapT":33071},{"magFilter":9728,"minFilter":9728,"wrapS":33071,"wrapT":33071},{"magFilter":9728,"minFilter":9728,"wrapS":33071,"wrapT":33071}],"images":[{"mimeType":"image/png","uri":"data:image/png;base64,"},{"mimeType":"image/png","uri":"data:image/png;base64,"},{"mimeType":"image/png","uri":"data:image/png;base64,"},{"mimeType":"image/png","uri":"data:image/png;base64,"},{"mimeType":"image/png","uri":"data:image/png;base64,"},{"mimeType":"image/png","uri":"data:image/png;base64,"},{"mimeType":"image/png","uri":"data:image/png;base64,"}],"meshes":[{"primitives":[{"mode":4,"attributes":{"POSITION":0,"NORMAL":1,"TEXCOORD_0":2},"indices":3,"material":0}]},{"primitives":[{"mode":4,"attributes":{"POSITION":4,"NORMAL":5,"TEXCOORD_0":6},"indices":7,"material":0}]},{"primitives":[{"mode":4,"attributes":{"POSITION":8,"NORMAL":9,"TEXCOORD_0":10},"indices":11,"material":0}]},{"primitives":[{"mode":4,"attributes":{"POSITION":12,"NORMAL":13,"TEXCOORD_0":14},"indices":15,"material":1}]},{"primitives":[{"mode":4,"attributes":{"POSITION":16,"NORMAL":17,"TEXCOORD_0":18},"indices":19,"material":2}]},{"primitives":[{"mode":4,"attributes":{"POSITION":20,"NORMAL":21,"TEXCOORD_0":22},"indices":23,"material":2}]},{"primitives":[{"mode":4,"attributes":{"POSITION":24,"NORMAL":25,"TEXCOORD_0":26},"indices":27,"material":3}]},{"primitives":[{"mode":4,"attributes":{"POSITION":28,"NORMAL":29,"TEXCOORD_0":30},"indices":31,"material":3}]},{"primitives":[{"mode":4,"attributes":{"POSITION":32,"NORMAL":33,"TEXCOORD_0":34},"indices":35,"material":3}]},{"primitives":[{"mode":4,"attributes":{"POSITION":36,"NORMAL":37,"TEXCOORD_0":38},"indices":39,"material":4}]},{"primitives":[{"mode":4,"attributes":{"POSITION":40,"NORMAL":41,"TEXCOORD_0":42},"indices":43,"material":4}]},{"primitives":[{"mode":4,"attributes":{"POSITION":44,"NORMAL":45,"TEXCOORD_0":46},"indices":47,"material":4}]},{"primitives":[{"mode":4,"attributes":{"POSITION":48,"NORMAL":49,"TEXCOORD_0":50},"indices":51,"material":4}]},{"primitives":[{"mode":4,"attributes":{"POSITION":52,"NORMAL":53,"TEXCOORD_0":54},"indices":55,"material":5}]},{"primitives":[{"mode":4,"attributes":{"POSITION":56,"NORMAL":57,"TEXCOORD_0":58},"indices":59,"material":5}]},{"primitives":[{"mode":4,"attributes":{"POSITION":60,"NORMAL":61,"TEXCOORD_0":62},"indices":63,"material":5}]},{"primitives":[{"mode":4,"attributes":{"POSITION":64,"NORMAL":65,"TEXCOORD_0":66},"indices":67,"material":5}]},{"primitives":[{"mode":4,"attributes":{"POSITION":68,"NORMAL":69,"TEXCOORD_0":70},"indices":71,"material":6}]},{"primitives":[{"mode":4,"attributes":{"POSITION":72,"NORMAL":73,"TEXCOORD_0":74},"indices":75,"material":6}]},{"primitives":[{"mode":4,"attributes":{"POSITION":76,"NORMAL":77,"TEXCOORD_0":78},"indices":79,"material":6}]},{"primitives":[{"mode":4,"attributes":{"POSITION":80,"NORMAL":81,"TEXCOORD_0":82},"indices":83,"material":6}]}]}